<?xml version="1.0" standalone="no"?>
<!DOCTYPE svg PUBLIC "-//W3C//DTD SVG 20010904//EN"
 "http://www.w3.org/TR/2001/REC-SVG-20010904/DTD/svg10.dtd">
<svg version="1.0" xmlns="http://www.w3.org/2000/svg"
 width="1024.000000pt" height="1024.000000pt" viewBox="0 0 1024.000000 1024.000000"
 preserveAspectRatio="xMidYMid meet">

<g transform="translate(0.000000,1024.000000) scale(0.100000,-0.100000)"
fill="#000000" stroke="none">
<path d="M0 5120 l0 -5120 5120 0 5120 0 0 5120 0 5120 -5120 0 -5120 0 0
-5120z m4675 3568 c33 -6 85 -17 115 -25 30 -9 67 -18 83 -20 15 -3 30 -9 33
-14 3 -5 14 -9 25 -9 10 0 27 -4 37 -9 9 -5 37 -18 62 -29 25 -10 60 -25 78
-33 17 -8 32 -17 32 -21 0 -5 6 -8 14 -8 31 0 254 -149 331 -221 44 -41 155
-152 195 -196 71 -77 230 -293 230 -312 0 -6 3 -11 8 -11 4 0 16 -16 26 -35
11 -19 22 -35 26 -35 4 0 12 -11 18 -25 22 -47 160 -210 265 -313 59 -57 108
-102 111 -100 3 2 14 -4 23 -12 29 -24 89 -55 267 -141 27 -13 52 -24 55 -25
9 -1 42 -14 88 -35 24 -10 45 -19 48 -19 3 0 40 -16 82 -36 42 -19 98 -44 125
-56 26 -11 48 -25 48 -31 0 -6 3 -7 6 -4 8 8 244 -115 284 -147 8 -7 48 -32
88 -55 39 -24 72 -47 72 -52 0 -5 7 -9 14 -9 17 0 246 -187 246 -201 0 -5 6
-9 13 -9 8 0 20 -11 27 -25 7 -14 18 -25 23 -25 14 0 156 -147 253 -261 89
-107 194 -257 291 -419 39 -66 137 -265 148 -300 4 -14 13 -32 20 -40 7 -8 15
-26 18 -40 3 -14 15 -50 27 -80 12 -30 25 -67 27 -83 3 -15 9 -30 14 -33 5 -3
9 -16 9 -29 0 -13 9 -48 20 -77 20 -54 44 -152 56 -222 3 -22 10 -50 15 -64 5
-13 7 -27 4 -31 -2 -4 0 -23 5 -42 32 -117 45 -577 21 -742 -6 -40 -13 -90
-16 -112 -6 -51 -42 -230 -55 -270 -5 -16 -23 -73 -39 -125 -36 -117 -56 -172
-83 -230 -11 -25 -27 -61 -35 -80 -9 -19 -20 -42 -24 -50 -4 -8 -25 -48 -46
-89 -21 -40 -44 -76 -50 -78 -7 -3 -13 -12 -13 -21 0 -8 -11 -30 -25 -48 -14
-18 -25 -37 -25 -42 0 -6 -7 -12 -15 -16 -8 -3 -15 -12 -15 -20 0 -8 -18 -33
-40 -56 -22 -23 -40 -44 -40 -47 0 -3 -16 -21 -35 -40 -19 -19 -35 -37 -35
-41 0 -3 -26 -31 -58 -62 -32 -30 -61 -63 -65 -73 -3 -9 -16 -17 -27 -17 -11
0 -20 -7 -20 -15 0 -7 -6 -18 -14 -22 -13 -7 -52 -39 -131 -105 -18 -16 -38
-28 -44 -28 -6 0 -14 -7 -17 -15 -4 -8 -11 -15 -18 -15 -6 0 -27 -13 -46 -30
-19 -16 -38 -29 -43 -30 -4 0 -26 -12 -50 -27 -63 -41 -107 -64 -107 -56 0 3
-8 -1 -17 -9 -16 -13 -101 -56 -158 -79 -11 -4 -40 -17 -65 -28 -25 -11 -59
-23 -75 -27 -17 -4 -34 -10 -40 -14 -5 -4 -21 -10 -35 -13 -14 -3 -50 -13 -80
-22 -61 -18 -85 -24 -117 -31 -12 -2 -34 -9 -49 -14 -15 -6 -29 -8 -31 -6 -3
3 -15 1 -27 -4 -30 -11 -92 -22 -196 -33 -25 -3 -88 -11 -140 -17 -144 -18
-680 -13 -712 6 -3 2 -28 7 -55 10 -26 3 -66 10 -88 16 -22 5 -48 12 -57 13
-10 2 -56 23 -103 46 -67 33 -100 58 -148 109 -34 37 -69 82 -78 101 -9 19
-22 47 -30 62 -17 36 -16 184 1 229 54 144 138 228 280 279 73 26 146 28 560
17 124 -4 250 -2 280 2 30 5 88 13 128 16 40 4 75 11 78 15 3 5 13 9 22 9 9 0
22 11 28 24 9 20 9 23 -2 19 -8 -3 -14 -11 -14 -19 0 -8 -6 -11 -15 -8 -13 5
-13 9 -3 23 12 14 11 15 -5 2 -18 -14 -87 -23 -87 -11 0 3 6 12 13 19 10 10 9
11 -5 6 -10 -4 -18 -10 -18 -14 0 -3 -16 -6 -35 -7 -18 0 -32 3 -29 8 3 4 0 8
-5 8 -6 0 -11 -6 -11 -12 0 -9 -4 -8 -10 2 -6 10 -10 11 -10 3 0 -7 -5 -13
-11 -13 -5 0 -7 5 -4 10 3 6 2 10 -4 10 -5 0 -13 -4 -16 -10 -3 -5 -14 -10
-23 -10 -13 0 -14 2 -3 9 8 5 9 11 3 15 -6 3 -13 2 -17 -3 -3 -7 -15 -7 -29
-1 -17 6 -30 4 -46 -7 -16 -11 -21 -12 -15 -3 6 10 4 12 -9 7 -14 -6 -17 -3
-12 8 4 13 2 14 -14 5 -25 -13 -43 -13 -34 1 3 6 -6 3 -22 -7 -26 -18 -28 -18
-21 -1 6 16 4 16 -23 2 -28 -14 -31 -14 -37 1 -6 15 -7 14 -14 -4 -10 -28 -33
-29 -26 -2 5 19 4 19 -27 3 -29 -15 -30 -15 -17 0 11 15 11 17 -1 17 -8 0 -19
-5 -26 -12 -8 -8 -12 -8 -12 -1 0 7 -19 10 -47 9 -27 -1 -55 1 -64 6 -9 4 -31
3 -48 -2 -19 -5 -29 -5 -26 1 4 5 1 9 -4 9 -6 0 -11 -6 -11 -12 0 -8 -3 -9 -8
-3 -8 12 -132 13 -149 2 -8 -5 -13 -4 -13 2 0 13 -63 11 -72 -3 -5 -8 -8 -7
-8 2 0 15 -52 16 -68 0 -9 -9 -12 -9 -12 1 0 11 -3 11 -17 0 -11 -10 -14 -10
-9 -1 5 8 1 12 -11 13 -10 1 -31 3 -48 4 -16 1 -36 -3 -42 -8 -9 -6 -13 -6
-13 2 0 6 -13 9 -30 7 -17 -2 -33 1 -36 6 -3 5 -16 8 -27 7 -36 -2 -45 0 -61
17 -11 10 -16 11 -16 3 0 -8 -6 -6 -19 5 -10 9 -23 16 -28 14 -14 -5 -129 118
-147 157 -17 34 -34 50 -22 20 6 -17 -2 -19 -24 -5 -13 9 -13 10 0 10 13 0 13
1 0 10 -20 13 -33 12 -24 -1 4 -7 1 -10 -7 -7 -8 3 -13 9 -12 14 1 5 -30 9
-69 9 -38 -1 -72 3 -74 7 -3 4 -13 4 -23 -2 -10 -5 -21 -7 -24 -4 -3 3 -38 7
-78 10 -105 7 -116 8 -125 17 -4 4 -16 7 -27 7 -18 0 -107 50 -133 75 -64 61
-93 196 -61 285 36 102 177 240 247 240 10 0 21 4 24 8 5 9 79 27 156 38 103
15 353 25 815 33 270 5 503 13 519 18 l30 9 -58 45 c-197 150 -372 296 -478
398 l-123 117 -85 -18 c-513 -107 -777 -221 -1036 -447 -45 -39 -87 -71 -93
-71 -7 0 -9 -5 -6 -11 4 -5 -50 -65 -119 -133 -92 -90 -144 -133 -194 -159
-162 -85 -318 -89 -472 -12 -59 30 -68 32 -90 19 -14 -7 -31 -13 -38 -14 -7 0
-18 -5 -25 -10 -7 -6 -21 -18 -32 -26 -16 -13 -17 -15 -2 -10 9 3 17 2 17 -3
0 -4 35 -11 78 -15 182 -16 184 -17 199 -60 18 -53 27 -146 14 -146 -5 0 -22
5 -37 10 -38 15 -411 107 -461 114 -25 4 -44 2 -48 -4 -4 -6 -15 -8 -25 -5
-11 3 -20 0 -24 -10 -3 -9 -9 -14 -14 -11 -4 2 -8 -4 -8 -14 0 -18 61 -50 96
-50 7 0 41 -9 74 -20 107 -36 122 -40 141 -40 10 0 32 -4 49 -9 17 -5 63 -19
101 -30 39 -11 93 -26 120 -34 l50 -15 -2 -77 c-1 -43 -5 -85 -9 -94 -4 -9 -9
-27 -11 -41 -2 -14 -8 -29 -12 -33 -8 -8 -187 53 -326 110 -33 13 -142 65
-242 115 -168 84 -183 90 -198 75 -9 -9 -13 -22 -9 -28 4 -7 3 -9 -3 -6 -6 4
-14 0 -17 -8 -4 -11 11 -26 50 -51 72 -46 303 -164 379 -193 33 -13 80 -32
105 -43 62 -28 76 -33 150 -55 65 -20 65 -20 65 -56 0 -20 -3 -37 -8 -37 -4 0
-5 -5 -2 -10 3 -6 1 -10 -4 -10 -6 0 -11 -7 -11 -15 0 -8 -5 -15 -11 -15 -5 0
-7 -5 -4 -10 4 -6 1 -17 -5 -25 -7 -8 -9 -15 -6 -15 4 0 -2 -10 -13 -22 l-20
-21 -94 45 c-144 70 -357 215 -487 331 -120 108 -183 156 -166 128 3 -5 -1
-11 -9 -15 -8 -3 -15 -15 -15 -26 0 -12 -4 -18 -10 -15 -27 17 8 -27 68 -85
139 -135 339 -286 482 -363 19 -11 53 -30 76 -42 66 -37 97 -40 130 -12 16 13
34 22 40 20 6 -2 10 4 10 14 -1 21 17 30 23 12 2 -7 -1 -9 -8 -5 -7 5 -9 1 -4
-10 5 -14 7 -14 14 -1 6 9 17 13 29 10 11 -3 17 -9 14 -14 -3 -5 -1 -9 5 -9 5
0 11 5 13 12 3 9 6 9 12 0 4 -8 -1 -16 -16 -21 -13 -6 -17 -10 -10 -10 6 -1
12 -10 12 -22 0 -11 4 -17 10 -14 6 4 8 16 4 28 -3 12 -3 19 1 15 4 -4 15 2
24 14 l17 21 27 -26 c16 -14 35 -23 46 -20 24 6 50 -24 28 -33 -20 -7 -10 -34
12 -34 14 0 14 2 1 10 -8 5 -11 12 -7 16 4 4 12 3 19 -4 8 -8 8 -15 -2 -27 -7
-8 -10 -15 -7 -15 3 0 13 -3 23 -7 12 -4 15 -3 10 5 -4 7 -3 12 3 12 5 0 11
-5 13 -10 2 -6 56 -13 123 -15 218 -10 354 -47 432 -118 58 -53 51 -139 -17
-200 -77 -70 -165 -104 -507 -197 -425 -116 -574 -140 -861 -140 -314 0 -493
52 -537 156 -11 26 -11 41 -2 69 12 40 70 105 93 105 8 0 14 3 14 8 0 10 50
32 74 32 21 1 56 22 56 33 0 4 -15 30 -33 59 -18 29 -38 64 -44 78 -6 14 -21
48 -34 75 -35 77 -66 166 -89 260 -14 56 -39 109 -40 85 0 -8 -14 -30 -31 -48
l-30 -32 24 -98 c25 -96 80 -224 136 -314 30 -47 27 -67 -6 -50 -10 6 -45 15
-78 22 -86 18 -130 50 -149 110 -9 27 -16 56 -16 64 0 8 -8 14 -18 13 -13 -1
-17 -7 -14 -23 2 -12 -1 -25 -7 -28 -6 -4 -11 -16 -11 -27 0 -10 -3 -19 -6
-19 -13 0 -143 92 -147 105 -8 19 9 82 29 112 11 14 23 33 29 42 5 9 26 39 46
66 20 28 42 61 49 75 16 31 106 150 129 170 9 8 24 25 32 37 59 86 383 416
552 563 54 47 119 104 145 127 26 23 52 43 59 43 6 0 13 3 15 8 4 10 85 72 94
72 4 0 16 7 26 17 21 19 24 78 6 118 -9 19 -9 28 0 37 7 7 12 24 12 40 0 28 9
54 44 128 25 52 122 160 144 160 13 0 13 -2 -1 -18 -8 -9 -20 -28 -26 -42 -6
-14 -19 -38 -30 -55 -25 -42 -49 -121 -57 -186 -18 -161 102 -305 292 -349 96
-21 235 18 349 99 45 32 100 77 249 204 27 23 71 59 98 79 28 21 62 51 76 66
l27 28 -85 -4 c-259 -12 -487 145 -547 378 -14 57 3 83 78 123 64 33 106 57
214 124 44 27 91 56 105 64 14 8 27 16 30 19 3 3 26 16 52 29 26 13 56 33 67
45 l20 21 -222 1 c-177 1 -269 7 -452 30 -306 37 -542 40 -658 6 -76 -22 -202
-80 -279 -128 -49 -31 -54 -30 -29 5 12 16 21 33 21 38 0 5 13 24 30 43 16 19
29 44 30 54 0 22 18 81 31 108 13 25 11 165 -2 207 -25 78 -66 168 -87 189 -6
8 -17 23 -23 34 -6 11 -12 18 -14 16 -2 -2 7 -69 22 -148 36 -204 37 -379 4
-470 -44 -118 -112 -191 -233 -252 -35 -17 -65 -33 -66 -34 -7 -5 60 -123 121
-211 131 -191 163 -232 190 -244 26 -11 37 -29 17 -29 -5 0 -10 -5 -10 -11 0
-8 4 -8 13 -1 8 7 18 7 27 2 14 -9 13 -11 -9 -14 -5 0 -13 -5 -18 -10 -5 -5
-3 -6 5 -2 7 4 12 2 12 -5 0 -7 7 -4 15 7 11 15 11 21 2 29 -19 15 -14 40 8
43 24 3 148 -42 152 -54 1 -5 -35 -33 -80 -62 -45 -29 -98 -66 -118 -83 l-36
-30 -54 53 c-65 64 -96 86 -178 128 -35 17 -60 35 -55 40 5 4 38 13 73 19 35
6 66 13 69 16 3 3 -5 20 -18 38 -54 72 -140 206 -177 277 l-39 75 -85 6 c-144
10 -246 72 -306 186 -52 97 -61 167 -37 281 12 60 19 40 19 -56 0 -84 4 -105
26 -153 32 -68 85 -121 155 -154 91 -43 214 -31 177 18 -5 6 -20 39 -32 72
-13 33 -27 68 -32 77 -5 10 -9 22 -9 28 0 6 -18 49 -40 97 -39 82 -103 182
-149 231 -75 78 -151 201 -180 291 -14 44 -14 162 0 215 27 98 103 201 174
234 97 46 170 58 253 43 174 -31 298 -145 377 -348 30 -75 36 -79 90 -54 11 5
47 14 80 21 33 6 76 15 95 20 19 5 76 14 125 20 50 6 112 15 138 20 27 6 72
10 100 10 45 0 98 8 232 35 59 12 161 70 210 120 54 54 82 103 99 175 12 52
13 220 1 298 -4 28 -5 52 -1 52 20 0 136 -43 144 -53 5 -7 21 -65 36 -130 62
-274 218 -609 393 -846 67 -89 200 -251 220 -267 28 -23 96 17 238 142 132
116 208 240 246 399 31 125 50 225 52 264 2 33 -1 36 -138 124 -77 50 -203
128 -280 175 -351 213 -395 242 -395 266 0 25 17 46 38 46 7 0 33 -13 57 -30
24 -16 47 -30 52 -30 4 0 43 -23 86 -50 43 -28 80 -50 83 -50 3 0 25 -13 49
-30 24 -16 46 -30 50 -30 4 0 26 -13 50 -30 24 -16 46 -30 50 -30 3 0 53 -32
111 -71 58 -39 130 -84 159 -100 59 -32 62 -31 84 36 25 80 119 275 142 295 3
3 8 12 11 20 3 9 36 55 73 103 116 153 203 308 234 420 6 20 16 54 23 74 14
47 13 294 -1 321 -6 12 -11 32 -11 46 0 14 -4 28 -10 31 -5 3 -10 14 -10 23 0
28 -77 169 -126 233 -59 76 -213 194 -231 176 -2 -3 0 -44 5 -92 11 -96 7
-193 -13 -315 -14 -82 -67 -222 -114 -294 -17 -28 -31 -56 -31 -63 0 -7 -4
-13 -9 -13 -4 0 -21 -19 -37 -42 -39 -58 -143 -157 -176 -170 -16 -5 -28 -14
-28 -19 0 -5 -35 -26 -77 -48 -212 -106 -452 -137 -620 -80 -132 44 -261 155
-366 313 -78 117 -115 199 -166 371 -11 36 -33 167 -30 181 1 5 1 22 0 39 l-1
29 -17 -23 c-9 -13 -20 -40 -24 -60 -4 -20 -15 -56 -24 -80 -8 -24 -18 -55
-20 -70 -2 -14 -9 -48 -15 -76 -16 -78 -25 -198 -25 -342 0 -129 0 -131 -18
-115 -43 38 -157 236 -157 273 0 8 -4 19 -8 25 -32 36 -78 312 -68 407 3 34 8
87 11 117 6 53 10 76 35 170 16 60 50 144 83 205 35 65 39 79 31 92 -5 8 -53
45 -106 81 -456 313 -466 321 -487 360 -10 19 -10 28 3 47 11 17 31 25 82 34
37 7 84 10 103 6 20 -3 135 -10 256 -16 207 -9 344 -19 512 -35 50 -5 77 -3
87 5 26 21 249 131 267 131 10 0 20 4 23 9 3 5 20 11 38 14 18 3 56 11 83 17
130 28 377 32 510 8z m-1396 -1963 c44 -15 60 -37 42 -59 -12 -14 -63 -16
-442 -16 -375 0 -429 2 -443 16 -18 18 -19 23 -6 44 7 11 39 16 137 21 217 11
674 7 712 -6z m69 -127 c20 -20 14 -57 -10 -68 -13 -6 -125 -39 -250 -75 -125
-36 -326 -97 -447 -135 -120 -39 -226 -67 -235 -64 -35 13 -5 84 35 84 10 0
21 5 24 10 3 6 15 10 26 10 10 0 27 4 37 9 9 5 35 14 57 20 22 7 49 16 60 20
50 20 155 51 173 51 12 0 24 5 27 10 3 6 16 10 29 10 12 0 26 4 31 8 9 8 94
35 200 64 22 5 53 14 69 19 16 5 41 9 55 9 14 1 37 7 51 15 31 18 52 19 68 3z
m386 -39 c9 -8 -78 -122 -125 -164 -21 -20 -21 -20 -48 12 -46 55 -94 142 -87
159 5 14 21 15 129 9 67 -4 126 -11 131 -16z m786 -78 c36 -6 103 -14 150 -20
47 -6 119 -15 160 -21 41 -6 127 -15 190 -20 146 -13 168 -18 181 -42 9 -16 7
-25 -10 -41 -20 -21 -21 -21 -153 -4 -204 26 -438 55 -593 72 -184 20 -203 24
-209 42 -3 8 -1 24 5 35 10 19 17 20 113 14 55 -3 130 -10 166 -15z m-1065
-61 c9 -29 -3 -44 -77 -97 -73 -52 -317 -237 -497 -376 -87 -67 -120 -87 -140
-85 -18 2 -27 10 -29 25 -3 21 10 38 54 73 10 8 64 51 119 95 55 44 125 99
155 121 59 44 210 153 249 182 14 9 43 31 65 49 48 37 92 43 101 13z m716
-192 c24 -29 73 -87 109 -129 36 -41 124 -146 195 -234 72 -87 149 -181 173
-208 23 -28 42 -58 42 -67 0 -20 -19 -40 -40 -40 -19 0 -140 139 -488 559
-102 123 -104 128 -76 155 25 25 39 19 85 -36z m-2458 -1854 c106 -83 119
-109 72 -140 -25 -16 -27 -15 -103 41 -106 79 -132 105 -132 131 0 24 23 43
51 44 8 0 59 -34 112 -76z m506 -404 c9 -4 41 -18 71 -31 99 -42 240 -139 240
-165 0 -7 -11 -21 -24 -29 -22 -15 -28 -15 -53 -2 -15 8 -74 29 -131 47 -57
18 -131 44 -165 58 -34 14 -89 33 -122 42 -33 9 -60 23 -60 29 0 13 65 54 101
64 24 7 122 -2 143 -13z m782 -42 c53 -40 109 -90 109 -97 0 -3 -35 -31 -78
-61 -260 -185 -641 -542 -867 -815 -140 -168 -325 -432 -325 -462 0 -6 -6 -16
-14 -22 -17 -14 -47 11 -94 81 -37 54 -40 92 -12 143 28 50 134 205 156 230
11 12 35 41 54 65 106 137 181 220 340 380 188 189 385 373 437 408 21 14 59
43 84 64 26 21 51 38 55 38 5 0 29 16 54 35 54 40 63 42 101 13z m-996 -133
c50 -13 86 -24 82 -24 -81 -10 -199 -45 -349 -106 -35 -14 -18 20 43 88 71 79
79 80 224 42z m392 -131 c7 -18 -67 -96 -102 -107 l-20 -7 20 16 c19 15 17 15
-35 9 -176 -22 -459 -172 -634 -336 l-79 -74 7 60 c10 89 26 155 49 203 31 65
57 88 137 119 14 6 45 20 68 32 24 11 50 21 58 21 8 0 22 4 32 9 16 8 47 17
140 40 85 21 143 28 245 30 90 1 109 -2 114 -15z m-227 -251 c-23 -27 -54 -58
-69 -70 -14 -13 -26 -26 -27 -30 0 -5 -29 -38 -65 -74 -132 -135 -282 -330
-350 -454 -23 -42 -29 -46 -34 -30 -4 11 -15 36 -26 56 -10 20 -19 46 -19 57
0 12 -4 24 -10 27 -14 8 -13 121 1 148 19 36 70 86 149 145 41 30 77 58 80 62
8 11 122 84 155 100 17 8 42 22 57 32 14 10 35 18 45 18 10 0 23 4 29 9 7 7
108 48 123 50 2 1 -16 -20 -39 -46z m2755 -453 c10 -11 14 -20 9 -20 -5 0 -15
9 -22 20 -7 11 -11 20 -9 20 2 0 12 -9 22 -20z m-865 -76 c10 -11 11 -23 4
-42 -8 -23 -17 -28 -67 -36 -65 -9 -81 -6 -97 24 -9 17 -7 24 14 45 21 21 35
25 79 25 37 0 59 -5 67 -16z m551 -374 c23 -13 25 -47 2 -72 -14 -15 -33 -18
-136 -18 -98 0 -124 3 -139 17 -23 21 -23 32 4 60 20 21 29 23 135 23 63 0
123 -5 134 -10z m154 -345 c63 -29 75 -38 75 -58 0 -13 -9 -32 -20 -42 -19
-17 -22 -17 -67 0 -135 51 -164 75 -137 113 22 31 61 28 149 -13z m-2969 -51
c9 -34 -2 -43 -122 -103 -108 -54 -123 -58 -142 -39 -23 23 -14 55 23 78 83
52 163 87 197 89 33 1 38 -2 44 -25z m2999 -224 c124 -32 166 -53 223 -111 84
-86 58 -197 -67 -283 -106 -74 -327 -144 -583 -186 -145 -24 -168 -21 -168 20
0 31 34 47 125 59 50 7 100 17 113 22 13 5 35 9 49 9 28 0 32 1 193 51 175 55
275 116 285 173 22 117 -197 191 -487 166 -175 -15 -271 -39 -513 -130 -211
-79 -528 -180 -563 -180 -23 0 -42 19 -42 41 0 20 50 59 76 59 19 0 79 18 106
31 10 5 25 9 35 9 30 0 111 28 225 79 26 12 55 21 63 21 8 0 35 9 60 20 25 11
65 29 90 40 25 11 52 20 62 20 16 0 66 14 108 31 24 9 60 17 133 29 30 5 56
11 60 14 10 10 375 6 417 -4z m1071 -341 c49 -18 99 -39 112 -47 31 -20 29
-59 -4 -74 -22 -10 -39 -8 -112 17 -95 33 -136 63 -125 92 5 14 29 40 39 43 1
0 41 -14 90 -31z"/>
<path d="M4153 8594 c-44 -22 -80 -98 -94 -199 -15 -109 0 -413 27 -548 6 -30
13 -30 79 -2 17 7 50 18 75 25 25 7 58 17 74 23 37 14 316 13 353 0 15 -6 48
-16 73 -23 25 -7 55 -17 67 -22 31 -15 45 -2 38 35 -3 18 -10 41 -14 52 -5 11
-15 40 -22 65 -45 153 -204 373 -349 485 -134 103 -243 142 -307 109z"/>
<path d="M3992 6973 c-74 -36 -82 -132 -16 -192 34 -31 40 -33 88 -28 68 8 96
41 96 113 0 42 -5 55 -27 76 -27 26 -72 48 -96 48 -7 0 -27 -8 -45 -17z"/>
<path d="M2040 5801 c-49 -10 -125 -49 -154 -80 -13 -14 -37 -51 -52 -81 -22
-44 -27 -68 -27 -126 0 -61 5 -82 35 -146 20 -42 68 -113 111 -165 99 -119
159 -209 191 -286 50 -123 116 -295 116 -306 0 -6 9 -15 20 -21 17 -9 29 -5
68 21 98 66 155 134 181 215 15 47 10 323 -8 409 -18 91 -29 140 -40 175 -5
19 -13 46 -16 60 -6 24 -16 49 -39 100 -70 156 -243 260 -386 231z"/>
<path d="M6914 5511 c-2 -2 -25 -5 -51 -7 -267 -16 -529 -231 -644 -528 -49
-127 -63 -211 -62 -391 0 -178 18 -294 74 -460 36 -107 137 -317 210 -435 66
-108 109 -187 109 -199 0 -6 -230 -10 -626 -11 -378 0 -644 -4 -671 -10 -236
-53 -364 -300 -239 -462 105 -138 161 -145 1266 -150 669 -2 812 -1 845 11 80
28 213 97 235 122 3 3 26 19 51 36 204 139 433 453 517 708 70 212 87 317 87
535 0 155 -8 232 -32 320 -8 30 -19 72 -24 92 -8 34 -26 85 -49 143 -30 75
-88 184 -132 246 -52 74 -239 269 -259 269 -6 0 -25 11 -43 25 -90 69 -328
144 -444 141 -29 0 -52 2 -52 6 0 7 -58 6 -66 -1z"/>
<path d="M2440 2897 c0 -8 -7 -18 -16 -21 -9 -4 -14 -9 -11 -13 4 -3 2 -14 -3
-24 -12 -22 -3 -45 68 -162 105 -176 272 -378 367 -444 27 -19 34 -20 62 -8
17 7 34 18 38 25 4 7 -20 40 -63 83 -39 40 -83 88 -99 107 -15 19 -30 37 -33
40 -40 38 -163 214 -243 346 -41 69 -67 96 -67 71z"/>
<path d="M3475 2500 c-3 -5 -1 -11 5 -15 5 -3 10 -3 10 2 0 4 6 -3 13 -16 6
-14 19 -27 27 -29 11 -4 10 -1 -3 12 -9 10 -15 21 -13 25 3 4 -4 12 -14 19
-11 7 -21 8 -25 2z"/>
<path d="M3550 2470 c0 -5 5 -10 10 -10 6 0 10 5 10 10 0 6 -4 10 -10 10 -5 0
-10 -4 -10 -10z"/>
<path d="M3700 2283 c-8 -3 -25 -16 -39 -29 -13 -12 -30 -20 -37 -17 -9 3 -14
-2 -14 -15 0 -25 -26 -49 -33 -30 -4 10 -10 8 -21 -6 -13 -16 -16 -17 -16 -4
0 16 -28 33 -38 23 -3 -3 0 -5 6 -5 30 0 6 -18 -45 -35 -47 -14 -54 -19 -38
-26 16 -6 17 -8 3 -8 -9 -1 -20 4 -23 9 -4 7 -12 7 -24 0 -10 -5 -22 -6 -26
-2 -5 4 -5 1 -1 -5 4 -7 15 -13 24 -14 9 -1 2 -5 -16 -9 -40 -9 -74 -2 -65 14
3 6 -2 3 -13 -6 -11 -10 -34 -18 -52 -20 -18 -1 -32 -8 -32 -15 0 -16 -12 -17
-28 -1 -8 8 -12 8 -12 1 0 -6 -11 -10 -24 -9 -13 0 -22 4 -19 9 2 4 0 7 -6 7
-5 0 -14 -8 -20 -17 -9 -16 -13 -16 -31 -5 -18 11 -21 11 -14 0 6 -10 5 -11
-7 -1 -12 10 -18 10 -28 0 -10 -9 -11 -8 -5 8 l7 20 -23 -20 c-22 -19 -23 -19
-16 -1 5 16 4 17 -9 6 -8 -7 -12 -16 -9 -21 3 -5 -3 -6 -12 -2 -11 4 -15 2
-11 -4 4 -7 -3 -10 -18 -9 -16 0 -23 6 -20 13 3 9 -3 11 -18 9 -12 -2 -21 -8
-20 -13 1 -5 -7 -9 -17 -9 -10 0 -16 4 -13 9 3 5 -3 7 -13 3 -11 -3 -26 -1
-34 4 -9 5 -19 5 -27 -2 -7 -6 -13 -6 -13 -1 0 5 -40 8 -89 7 -82 -1 -96 -5
-173 -42 -46 -22 -92 -50 -102 -61 -17 -19 -18 -22 -2 -45 22 -34 77 -59 186
-82 75 -16 505 -20 573 -5 23 5 69 14 102 21 102 19 159 31 185 39 14 5 50 14
80 21 30 7 95 25 144 41 49 16 95 29 104 29 19 0 135 38 189 61 24 11 49 19
58 19 15 0 73 30 118 62 79 56 -14 133 -189 157 -91 13 -133 12 -153 -3 -10
-8 -15 -8 -18 2 -5 12 -27 15 -53 5z m-206 -127 c-10 -8 -21 -12 -24 -10 -5 6
21 24 34 24 6 0 1 -6 -10 -14z m-234 -70 c0 -2 -7 -7 -16 -10 -8 -3 -12 -2 -9
4 6 10 25 14 25 6z"/>
<path d="M3580 2229 c0 -5 -4 -7 -10 -4 -5 3 -10 1 -10 -5 0 -6 -4 -8 -10 -5
-5 3 -10 1 -10 -5 0 -8 7 -9 18 -5 9 4 22 8 28 8 12 0 15 27 2 27 -4 0 -8 -5
-8 -11z"/>
<path d="M3326 2131 c-4 -7 -5 -15 -2 -18 9 -9 19 4 14 18 -4 11 -6 11 -12 0z"/>
<path d="M2796 2073 c-6 -14 -5 -15 5 -6 7 7 10 15 7 18 -3 3 -9 -2 -12 -12z"/>
</g>
</svg>
