<?xml version="1.0" standalone="no"?>
<!DOCTYPE svg PUBLIC "-//W3C//DTD SVG 20010904//EN"
 "http://www.w3.org/TR/2001/REC-SVG-20010904/DTD/svg10.dtd">
<svg version="1.0" xmlns="http://www.w3.org/2000/svg"
 width="1024.000000pt" height="1024.000000pt" viewBox="0 0 1024.000000 1024.000000"
 preserveAspectRatio="xMidYMid meet">

<g transform="translate(0.000000,1024.000000) scale(0.100000,-0.100000)"
fill="#000000" stroke="none">
<path d="M4280 8699 c-36 -5 -87 -13 -115 -19 -27 -6 -65 -14 -83 -17 -18 -3
-35 -9 -38 -14 -3 -5 -13 -9 -23 -9 -18 0 -241 -110 -267 -131 -10 -8 -37 -10
-87 -5 -168 16 -305 26 -512 35 -121 6 -236 13 -256 16 -19 4 -66 1 -103 -6
-104 -18 -120 -62 -47 -127 23 -20 142 -103 449 -314 53 -36 101 -73 106 -81
8 -13 4 -27 -31 -92 -33 -61 -67 -145 -83 -205 -25 -94 -29 -117 -35 -170 -3
-30 -8 -83 -11 -117 -10 -95 36 -371 68 -407 4 -6 8 -17 8 -25 0 -37 114 -235
157 -273 18 -16 18 -14 18 115 0 144 9 264 25 342 6 28 13 62 15 76 2 15 12
46 20 70 9 24 20 60 24 80 4 20 15 47 24 60 l17 23 1 -29 c1 -17 1 -34 0 -39
-3 -14 19 -145 30 -181 51 -172 88 -254 166 -371 105 -158 234 -269 366 -313
168 -57 408 -26 620 80 42 22 77 43 77 48 0 5 12 14 28 19 33 13 137 112 176
170 16 23 33 42 37 42 5 0 9 6 9 13 0 7 14 35 31 63 47 72 100 212 114 294 20
122 24 219 13 315 -5 48 -7 89 -5 92 18 18 172 -100 231 -176 49 -64 126 -205
126 -233 0 -9 5 -20 10 -23 6 -3 10 -17 10 -31 0 -14 5 -34 11 -46 14 -27 15
-274 1 -321 -7 -20 -17 -54 -23 -74 -31 -112 -118 -267 -234 -420 -37 -48 -70
-94 -73 -103 -3 -8 -8 -17 -11 -20 -23 -20 -117 -215 -142 -295 -22 -67 -25
-68 -84 -36 -29 16 -101 61 -159 100 -58 39 -108 71 -111 71 -4 0 -26 14 -50
30 -24 17 -46 30 -50 30 -4 0 -26 14 -50 30 -24 17 -46 30 -49 30 -3 0 -40 22
-83 50 -43 27 -82 50 -86 50 -5 0 -28 14 -52 30 -24 17 -50 30 -57 30 -21 0
-38 -21 -38 -46 0 -24 44 -53 395 -266 77 -47 203 -125 280 -175 137 -88 140
-91 138 -124 -2 -39 -21 -139 -52 -264 -38 -159 -114 -283 -246 -399 -142
-125 -210 -165 -238 -142 -20 16 -153 178 -220 267 -175 237 -331 572 -393
846 -15 65 -31 123 -36 130 -8 10 -124 53 -144 53 -4 0 -3 -24 1 -52 12 -78
11 -246 -1 -298 -17 -72 -45 -121 -99 -175 -49 -50 -151 -108 -210 -120 -134
-27 -187 -35 -232 -35 -28 0 -73 -4 -100 -10 -26 -5 -88 -14 -138 -20 -49 -6
-106 -15 -125 -20 -19 -5 -62 -14 -95 -20 -33 -7 -69 -16 -80 -21 -54 -25 -60
-21 -90 54 -57 147 -154 264 -257 312 -124 57 -241 55 -373 -7 -71 -33 -147
-136 -174 -234 -14 -53 -14 -171 0 -215 29 -90 105 -213 180 -291 46 -49 110
-149 149 -231 22 -48 40 -91 40 -97 0 -6 4 -18 9 -28 5 -9 19 -44 32 -77 12
-33 27 -66 32 -72 37 -49 -86 -61 -177 -18 -70 33 -123 86 -155 154 -22 48
-26 69 -26 153 0 96 -7 116 -19 56 -24 -114 -15 -184 37 -281 60 -114 162
-176 306 -186 l85 -6 39 -75 c37 -71 123 -205 177 -277 13 -18 21 -35 18 -38
-3 -3 -34 -10 -69 -16 -35 -6 -68 -15 -73 -19 -5 -5 20 -23 55 -40 82 -42 113
-64 178 -128 l54 -53 36 30 c20 17 73 54 118 83 45 29 81 57 80 62 -4 12 -128
57 -152 54 -22 -3 -27 -28 -8 -43 9 -8 9 -14 -2 -29 -8 -11 -15 -14 -15 -7 0
7 -5 9 -12 5 -8 -4 -10 -3 -5 2 5 5 13 10 18 10 22 3 23 5 9 14 -9 5 -19 5
-27 -2 -9 -7 -13 -7 -13 1 0 6 5 11 10 11 20 0 9 18 -17 29 -27 12 -59 53
-190 244 -61 88 -128 206 -121 211 1 1 31 17 66 34 121 61 189 134 233 252 33
91 32 266 -4 470 -15 79 -24 146 -22 148 2 2 8 -5 14 -16 6 -11 17 -26 23 -34
21 -21 62 -111 87 -189 13 -42 15 -182 2 -207 -13 -27 -31 -86 -31 -108 -1
-10 -14 -35 -30 -54 -17 -19 -30 -38 -30 -43 0 -5 -9 -22 -21 -38 -25 -35 -20
-36 29 -5 77 48 203 106 279 128 116 34 352 31 658 -6 183 -23 275 -29 452
-30 l222 -1 -20 -21 c-11 -12 -41 -32 -67 -45 -26 -13 -49 -26 -52 -29 -3 -3
-16 -11 -30 -19 -14 -8 -61 -37 -105 -64 -108 -67 -150 -91 -214 -124 -75 -40
-92 -66 -78 -123 60 -233 288 -390 547 -378 l85 4 -27 -28 c-14 -15 -48 -45
-76 -66 -27 -20 -71 -56 -98 -79 -286 -244 -341 -279 -478 -302 -171 -29 -356
79 -402 236 -24 84 -4 214 47 298 11 17 24 41 30 55 6 14 18 33 26 42 14 16
14 18 1 18 -22 0 -119 -108 -144 -160 -35 -74 -44 -100 -44 -128 0 -16 -5 -33
-12 -40 -9 -9 -9 -18 0 -37 18 -40 15 -99 -6 -118 -10 -10 -22 -17 -26 -17 -9
0 -90 -62 -94 -72 -2 -5 -9 -8 -15 -8 -7 0 -33 -20 -59 -43 -26 -23 -91 -80
-145 -127 -169 -147 -493 -477 -552 -563 -8 -12 -23 -29 -32 -37 -23 -20 -113
-139 -129 -170 -7 -14 -29 -47 -49 -75 -20 -27 -41 -57 -46 -66 -6 -9 -18 -28
-29 -42 -20 -30 -37 -93 -29 -112 4 -13 134 -105 147 -105 3 0 6 9 6 19 0 11
5 23 11 27 6 3 9 16 7 28 -3 16 1 22 14 23 10 1 18 -5 18 -13 0 -8 7 -37 16
-64 19 -60 63 -92 149 -110 33 -7 68 -16 78 -22 33 -17 36 3 6 50 -56 90 -111
218 -136 314 l-24 98 30 32 c17 18 31 40 31 48 1 24 26 -29 40 -85 23 -94 54
-183 89 -260 13 -27 28 -61 34 -75 6 -14 26 -49 44 -78 18 -29 33 -55 33 -59
0 -11 -35 -32 -56 -33 -24 0 -74 -22 -74 -32 0 -5 -6 -8 -14 -8 -23 0 -81 -65
-93 -105 -9 -28 -9 -43 2 -69 44 -104 223 -156 537 -156 287 0 436 24 861 140
342 93 430 127 507 197 49 44 67 96 51 145 -33 101 -194 161 -466 173 -67 2
-121 9 -123 15 -2 5 -8 10 -13 10 -6 0 -7 -5 -3 -12 5 -8 2 -9 -10 -5 -10 4
-20 7 -23 7 -3 0 0 7 7 15 10 12 10 19 2 27 -7 7 -15 8 -19 4 -4 -4 -1 -11 7
-16 13 -8 13 -10 -1 -10 -22 0 -32 27 -12 34 22 9 -4 39 -28 33 -11 -3 -30 6
-46 20 l-27 26 -17 -21 c-9 -12 -20 -18 -24 -14 -4 4 -4 -3 -1 -15 4 -12 2
-24 -4 -28 -6 -3 -10 3 -10 14 0 12 -6 21 -12 22 -7 0 -3 4 10 10 15 5 20 13
16 21 -6 9 -9 9 -12 0 -2 -7 -8 -12 -13 -12 -6 0 -8 4 -5 9 3 5 -3 11 -14 14
-12 3 -23 -1 -29 -10 -7 -13 -9 -13 -14 1 -5 11 -3 15 4 10 7 -4 10 -2 8 5 -6
18 -24 9 -23 -12 0 -10 -4 -16 -10 -14 -6 2 -24 -7 -40 -20 -33 -28 -64 -25
-130 12 -23 12 -57 31 -76 42 -143 77 -343 228 -482 363 -60 58 -95 102 -68
85 6 -3 10 3 10 15 0 11 7 23 15 26 8 4 12 10 9 15 -17 28 46 -20 166 -128
130 -116 343 -261 487 -331 l94 -45 20 21 c11 12 17 22 13 22 -3 0 -1 7 6 15
6 8 9 19 5 25 -3 5 -1 10 4 10 6 0 11 7 11 15 0 8 5 15 11 15 5 0 7 4 4 10 -3
5 -2 10 2 10 5 0 8 17 8 37 0 36 0 36 -65 56 -74 22 -88 27 -150 55 -25 11
-72 30 -105 43 -76 29 -307 147 -379 193 -39 25 -54 40 -50 51 3 8 11 12 17 8
6 -3 7 -1 3 6 -4 6 0 19 9 28 15 15 30 9 198 -75 100 -50 209 -102 242 -115
139 -57 318 -118 326 -110 4 4 10 19 12 33 2 14 7 32 11 41 4 9 8 51 9 94 l2
77 -50 15 c-27 8 -81 23 -120 34 -38 11 -84 25 -101 30 -17 5 -39 9 -49 9 -19
0 -34 4 -141 40 -33 11 -67 20 -74 20 -35 0 -96 32 -96 50 0 10 4 16 8 14 5
-3 11 2 14 11 4 10 13 13 24 10 10 -3 21 -1 25 5 4 6 23 8 48 4 50 -7 423 -99
461 -114 15 -5 32 -10 37 -10 13 0 4 93 -14 146 -15 43 -17 44 -199 60 -43 4
-78 11 -78 15 0 5 -8 6 -17 3 -15 -5 -14 -3 2 10 11 8 25 20 32 26 7 5 18 10
25 10 7 1 24 7 38 14 22 13 31 11 90 -19 154 -77 310 -73 472 12 50 26 102 69
194 159 69 68 123 128 119 133 -3 6 -1 11 6 11 6 0 48 32 93 71 259 226 523
340 1036 447 l85 18 123 -117 c106 -102 281 -248 478 -398 l58 -45 -30 -9
c-16 -5 -249 -13 -519 -18 -462 -8 -712 -18 -815 -33 -77 -11 -151 -29 -156
-38 -3 -4 -14 -8 -24 -8 -70 0 -211 -138 -247 -240 -32 -89 -3 -224 61 -285
26 -25 115 -75 133 -75 11 0 23 -3 27 -7 9 -9 20 -10 125 -17 40 -3 75 -7 78
-10 3 -3 14 -1 24 4 10 6 20 6 23 2 2 -4 36 -8 74 -7 39 0 70 -4 69 -9 -1 -5
4 -11 12 -14 8 -3 11 0 7 7 -9 13 4 14 24 1 13 -9 13 -10 0 -10 -13 0 -13 -1
0 -10 22 -14 30 -12 24 5 -12 30 5 14 22 -20 18 -39 133 -162 147 -157 5 2 18
-5 28 -14 13 -11 19 -13 19 -5 0 8 5 7 16 -3 16 -17 25 -19 61 -17 11 1 24 -2
27 -7 3 -5 19 -8 36 -6 17 2 30 -1 30 -7 0 -8 4 -8 13 -2 6 5 26 9 42 8 17 -1
38 -3 48 -4 12 -1 16 -5 11 -13 -5 -9 -2 -9 9 1 14 11 17 11 17 0 0 -10 3 -10
12 -1 16 16 68 15 68 0 0 -9 3 -10 8 -2 9 14 72 16 72 3 0 -6 5 -7 13 -2 17
11 141 10 149 -2 5 -6 8 -5 8 3 0 6 5 12 11 12 5 0 8 -4 4 -9 -3 -6 7 -6 26
-1 17 5 39 6 48 2 9 -5 37 -7 64 -6 28 1 47 -2 47 -9 0 -7 4 -7 12 1 7 7 18
12 26 12 12 0 12 -2 1 -17 -13 -15 -12 -15 17 0 31 16 32 16 27 -3 -7 -27 16
-26 26 2 7 18 8 19 14 4 6 -15 9 -15 37 -1 27 14 29 14 23 -2 -7 -17 -5 -17
21 1 16 10 25 13 22 7 -9 -14 9 -14 34 -1 16 9 18 8 14 -5 -5 -11 -2 -14 12
-8 13 5 15 3 9 -7 -6 -9 -1 -8 15 3 16 11 29 13 46 7 14 -6 26 -6 29 1 4 5 11
6 17 3 6 -4 5 -10 -3 -15 -11 -7 -10 -9 3 -9 9 0 20 5 23 10 3 6 11 10 16 10
6 0 7 -4 4 -10 -3 -5 -1 -10 4 -10 6 0 11 6 11 13 0 8 4 7 10 -3 6 -10 10 -11
10 -2 0 6 5 12 11 12 5 0 8 -4 5 -8 -3 -5 11 -8 29 -8 19 1 35 4 35 7 0 4 8
10 18 14 14 5 15 4 5 -6 -7 -7 -13 -16 -13 -19 0 -12 69 -3 87 11 16 13 17 12
5 -2 -10 -14 -10 -18 3 -23 9 -3 15 0 15 8 0 8 6 16 14 19 11 4 11 1 2 -19 -6
-13 -19 -24 -28 -24 -9 0 -19 -4 -22 -9 -3 -4 -38 -11 -78 -15 -40 -3 -98 -11
-128 -16 -30 -4 -156 -6 -280 -2 -414 11 -487 9 -560 -17 -89 -32 -161 -82
-207 -144 -39 -52 -49 -71 -73 -135 -17 -45 -18 -193 -1 -229 8 -15 21 -43 30
-62 9 -19 44 -64 78 -101 48 -51 81 -76 148 -109 47 -23 93 -44 103 -46 9 -1
35 -8 57 -13 22 -6 62 -13 88 -16 27 -3 52 -8 55 -10 32 -19 568 -24 712 -6
52 6 115 14 140 17 104 11 166 22 196 33 12 5 24 7 27 4 2 -2 16 0 31 6 15 5
37 12 49 14 32 7 56 13 117 31 30 9 66 19 80 22 14 3 30 9 35 13 6 4 23 10 40
14 16 4 50 16 75 27 25 11 54 24 65 28 57 23 142 66 158 79 9 8 17 12 17 9 0
-8 44 15 107 56 24 15 46 27 50 27 5 1 24 14 43 30 19 17 40 30 46 30 7 0 14
7 18 15 3 8 11 15 17 15 6 0 26 12 44 28 79 66 118 98 131 105 8 4 14 15 14
22 0 8 9 15 20 15 11 0 24 8 27 17 4 10 33 43 65 73 32 31 58 59 58 62 0 4 16
22 35 41 19 19 35 37 35 40 0 3 18 24 40 47 22 23 40 48 40 56 0 8 7 17 15 20
8 4 15 10 15 16 0 5 11 24 25 42 14 18 25 40 25 48 0 9 6 18 13 21 6 2 29 38
50 78 21 41 42 81 46 89 4 8 15 31 24 50 8 19 24 55 35 80 27 58 47 113 83
230 16 52 34 109 39 125 13 40 49 219 55 270 3 22 10 72 16 112 24 165 11 625
-21 742 -5 19 -7 38 -5 42 3 4 1 18 -4 31 -5 14 -12 42 -15 64 -12 70 -36 168
-56 222 -11 29 -20 64 -20 77 0 13 -4 26 -9 29 -5 3 -11 18 -14 33 -2 16 -15
53 -27 83 -12 30 -24 66 -27 80 -3 14 -11 32 -18 40 -7 8 -16 26 -20 40 -11
35 -109 234 -148 300 -97 162 -202 312 -291 419 -97 114 -239 261 -253 261 -5
0 -16 11 -23 25 -7 14 -19 25 -27 25 -7 0 -13 4 -13 9 0 14 -229 201 -246 201
-7 0 -14 4 -14 9 0 5 -33 28 -72 52 -40 23 -80 48 -88 55 -40 32 -276 155
-284 147 -3 -3 -6 -2 -6 4 0 6 -22 20 -48 31 -27 12 -83 37 -125 56 -42 20
-79 36 -82 36 -3 0 -24 9 -48 19 -46 21 -79 34 -88 35 -3 1 -28 12 -55 25
-178 86 -238 117 -267 141 -9 8 -20 14 -23 12 -3 -2 -52 43 -111 100 -105 103
-243 266 -265 313 -6 14 -14 25 -18 25 -4 0 -15 16 -26 35 -10 19 -22 35 -26
35 -5 0 -8 5 -8 11 0 19 -159 235 -230 312 -40 44 -151 155 -195 196 -77 72
-300 221 -331 221 -8 0 -14 3 -14 8 0 4 -15 13 -32 21 -18 8 -53 23 -78 33
-25 11 -53 24 -62 29 -10 5 -27 9 -37 9 -11 0 -22 4 -25 9 -3 5 -18 11 -33 14
-16 2 -53 11 -83 20 -137 36 -370 53 -510 36z m59 -135 c173 -95 312 -244 417
-444 22 -41 46 -95 53 -120 7 -25 17 -54 22 -65 4 -11 11 -34 14 -52 7 -37 -7
-50 -38 -35 -12 5 -42 15 -67 22 -25 7 -58 17 -73 23 -37 13 -316 14 -353 0
-16 -6 -49 -16 -74 -23 -25 -7 -58 -18 -75 -25 -66 -28 -73 -28 -79 2 -27 135
-42 439 -27 548 29 205 117 259 280 169z m-262 -1585 c15 -5 40 -22 56 -37 22
-21 27 -34 27 -76 0 -72 -28 -105 -96 -113 -48 -5 -54 -3 -88 28 -66 60 -58
156 16 192 39 20 48 20 85 6z m-1852 -1204 c83 -38 163 -119 201 -205 23 -51
33 -76 39 -100 3 -14 11 -41 16 -60 11 -35 22 -84 40 -175 18 -86 23 -362 8
-409 -26 -81 -83 -149 -181 -215 -39 -26 -51 -30 -68 -21 -11 6 -20 15 -20 21
0 11 -66 183 -116 306 -32 77 -92 167 -191 286 -43 52 -91 123 -111 165 -30
64 -35 85 -35 146 0 115 55 208 151 256 89 45 177 47 267 5z m4755 -263 c0 -4
23 -6 52 -6 116 3 354 -72 444 -141 18 -14 37 -25 43 -25 20 0 207 -195 259
-269 44 -62 102 -171 132 -246 23 -58 41 -109 49 -143 5 -20 16 -62 24 -92 24
-88 32 -165 32 -320 0 -218 -17 -323 -87 -535 -84 -255 -313 -569 -517 -708
-25 -17 -48 -33 -51 -36 -22 -25 -155 -94 -235 -122 -33 -12 -176 -13 -845
-11 -962 4 -1101 13 -1193 79 -124 87 -157 231 -82 359 46 79 150 152 248 174
27 6 293 10 671 10 396 1 626 5 626 11 0 12 -43 91 -109 199 -73 118 -174 328
-210 435 -56 166 -74 282 -74 460 -1 180 13 264 62 391 76 197 217 362 384
450 79 41 186 74 260 78 26 2 49 5 51 7 8 7 66 8 66 1z m-4473 -2686 c80 -132
203 -308 243 -346 3 -3 18 -21 33 -40 16 -19 60 -67 99 -107 43 -43 67 -76 63
-83 -4 -7 -21 -18 -38 -25 -28 -12 -35 -11 -62 8 -95 66 -262 268 -367 444
-71 117 -80 140 -68 162 5 10 7 21 3 24 -3 4 2 9 11 13 9 3 16 13 16 21 0 25
26 -2 67 -71z m1007 -347 c-2 -4 4 -15 13 -25 13 -13 14 -16 3 -12 -8 2 -21
15 -27 29 -7 13 -13 20 -13 16 0 -5 -5 -5 -10 -2 -6 4 -8 10 -5 15 4 6 14 5
25 -2 10 -7 17 -15 14 -19z m56 -9 c0 -5 -4 -10 -10 -10 -5 0 -10 5 -10 10 0
6 5 10 10 10 6 0 10 -4 10 -10z m183 -192 c3 -10 8 -10 18 -2 20 15 62 16 153
3 175 -24 268 -101 189 -157 -45 -32 -103 -62 -118 -62 -9 0 -34 -8 -58 -19
-54 -23 -170 -61 -189 -61 -9 0 -55 -13 -104 -29 -49 -16 -114 -34 -144 -41
-30 -7 -66 -16 -80 -21 -26 -8 -83 -20 -185 -39 -33 -7 -79 -16 -102 -21 -68
-15 -498 -11 -573 5 -109 23 -164 48 -186 82 -16 23 -15 26 2 45 10 11 56 39
102 61 77 37 91 41 173 42 49 1 89 -2 89 -7 0 -5 6 -5 13 1 8 7 18 7 27 2 8
-5 23 -7 34 -4 10 4 16 2 13 -3 -3 -5 3 -9 13 -9 10 0 18 4 17 9 -1 5 8 11 20
13 15 2 21 0 18 -9 -3 -7 4 -13 20 -13 15 -1 22 2 18 9 -4 6 0 8 11 4 9 -4 15
-3 12 2 -3 5 1 14 9 21 13 11 14 10 9 -6 -7 -18 -6 -18 16 1 l23 20 -7 -20
c-6 -16 -5 -17 5 -8 10 10 16 10 28 0 12 -10 13 -9 7 1 -7 11 -4 11 14 0 18
-11 22 -11 31 5 6 9 15 17 20 17 6 0 8 -3 6 -7 -3 -5 6 -9 19 -9 13 -1 24 3
24 9 0 7 4 7 12 -1 16 -16 28 -15 28 1 0 7 14 14 32 15 18 2 41 10 52 20 11 9
16 12 13 6 -9 -16 25 -23 65 -14 18 4 25 8 16 9 -9 1 -20 7 -24 14 -4 6 -4 9
1 5 4 -4 16 -3 26 2 12 7 20 7 24 0 3 -5 14 -10 23 -9 14 0 13 2 -3 8 -16 7
-9 12 38 26 51 17 75 35 45 35 -6 0 -9 2 -6 5 10 10 38 -7 38 -23 0 -13 3 -12
16 4 11 14 17 16 21 6 7 -19 33 5 33 30 0 13 5 18 14 15 7 -3 24 5 37 17 39
36 84 47 92 24z m-156 -51 c0 -8 -5 -14 -11 -14 -6 0 -19 -4 -28 -8 -11 -4
-18 -3 -18 5 0 6 5 8 10 5 6 -3 10 -1 10 5 0 6 5 8 10 5 6 -3 10 -1 10 4 0 6
4 11 8 11 5 0 9 -6 9 -13z m-261 -114 c-10 -10 -19 5 -10 18 6 11 8 11 12 0 2
-7 1 -15 -2 -18z m-535 -46 c-10 -9 -11 -8 -5 6 3 10 9 15 12 12 3 -3 0 -11
-7 -18z"/>
<path d="M3480 2160 c-8 -5 -12 -11 -10 -14 3 -2 14 2 24 10 22 15 10 19 -14
4z"/>
<path d="M3235 2080 c-3 -6 1 -7 9 -4 18 7 21 14 7 14 -6 0 -13 -4 -16 -10z"/>
<path d="M2567 6731 c-98 -5 -130 -10 -137 -21 -13 -21 -12 -26 6 -44 14 -14
68 -16 443 -16 379 0 430 2 442 16 18 22 2 44 -42 59 -38 13 -495 17 -712 6z"/>
<path d="M3280 6595 c-14 -8 -37 -14 -51 -15 -14 0 -39 -4 -55 -9 -16 -5 -47
-14 -69 -19 -106 -29 -191 -56 -200 -64 -5 -4 -19 -8 -31 -8 -13 0 -26 -4 -29
-10 -3 -5 -15 -10 -27 -10 -18 0 -123 -31 -173 -51 -11 -4 -38 -13 -60 -20
-22 -6 -48 -15 -57 -20 -10 -5 -27 -9 -37 -9 -11 0 -23 -4 -26 -10 -3 -5 -14
-10 -24 -10 -40 0 -70 -71 -35 -84 9 -3 115 25 235 64 121 38 322 99 447 135
272 78 272 78 272 108 0 45 -34 58 -80 32z"/>
<path d="M3474 6566 c-7 -17 41 -104 87 -159 27 -32 27 -32 48 -12 47 42 134
156 125 164 -5 5 -64 12 -131 16 -108 6 -124 5 -129 -9z"/>
<path d="M4241 6482 c-6 -11 -8 -27 -5 -35 6 -18 25 -22 209 -42 155 -17 389
-46 593 -72 132 -17 133 -17 153 4 17 16 19 25 10 41 -13 24 -35 29 -181 42
-63 5 -149 14 -190 20 -41 6 -113 15 -160 21 -47 6 -114 14 -150 20 -36 5
-111 12 -166 15 -96 6 -103 5 -113 -14z"/>
<path d="M3354 6407 c-22 -18 -51 -40 -65 -49 -39 -29 -190 -138 -249 -182
-30 -22 -100 -77 -155 -121 -55 -44 -109 -87 -119 -95 -44 -35 -57 -52 -54
-73 2 -15 11 -23 29 -25 20 -2 53 18 140 85 180 139 424 324 497 376 74 53 86
68 77 97 -9 30 -53 24 -101 -13z"/>
<path d="M4086 6264 c-28 -27 -26 -32 76 -155 348 -420 469 -559 488 -559 21
0 40 20 40 40 0 9 -19 39 -42 67 -24 27 -101 121 -173 208 -71 88 -159 193
-195 234 -36 42 -85 100 -109 129 -46 55 -60 61 -85 36z"/>
<path d="M1568 4439 c-26 -15 -22 -52 10 -81 15 -14 62 -51 104 -83 76 -56 78
-57 103 -41 47 31 34 57 -72 140 -97 77 -113 84 -145 65z"/>
<path d="M2076 3983 c-36 -10 -101 -51 -101 -64 0 -6 27 -20 60 -29 33 -9 88
-28 122 -42 34 -14 108 -40 165 -58 57 -18 116 -39 131 -47 25 -13 31 -13 53
2 13 8 24 22 24 29 0 26 -141 123 -240 165 -30 13 -62 27 -71 31 -21 11 -119
20 -143 13z"/>
<path d="M2900 3915 c-25 -19 -49 -35 -54 -35 -4 0 -29 -17 -55 -38 -25 -21
-63 -50 -84 -64 -52 -35 -249 -219 -437 -408 -159 -160 -234 -243 -340 -380
-19 -24 -43 -53 -54 -65 -22 -25 -128 -180 -156 -230 -28 -51 -25 -89 12 -143
47 -70 77 -95 94 -81 8 6 14 16 14 22 0 30 185 294 325 462 226 273 607 630
867 815 43 30 78 58 78 61 0 7 -56 57 -109 97 -38 29 -47 27 -101 -13z"/>
<path d="M1781 3753 c-61 -68 -78 -102 -43 -88 150 61 268 96 349 106 20 2
-176 48 -209 48 -33 1 -43 -6 -97 -66z"/>
<path d="M2125 3668 c-87 -16 -204 -47 -227 -59 -10 -5 -24 -9 -32 -9 -8 0
-34 -10 -58 -21 -23 -12 -54 -26 -68 -32 -80 -31 -106 -54 -137 -119 -23 -48
-39 -114 -49 -203 l-7 -60 79 74 c175 164 458 314 634 336 52 6 54 6 35 -9
l-20 -16 20 7 c35 11 109 89 102 107 -5 13 -24 16 -114 15 -59 -1 -130 -6
-158 -11z"/>
<path d="M2150 3438 c-30 -11 -59 -24 -64 -29 -6 -5 -19 -9 -29 -9 -10 0 -31
-8 -45 -18 -15 -10 -40 -24 -57 -32 -33 -16 -147 -89 -155 -100 -3 -4 -39 -32
-80 -62 -79 -59 -130 -109 -149 -145 -14 -27 -15 -140 -1 -148 6 -3 10 -15 10
-27 0 -11 9 -37 19 -57 11 -20 22 -45 26 -56 5 -16 11 -12 34 30 68 124 218
319 350 454 36 36 65 69 65 74 1 4 13 17 27 30 27 23 114 117 108 116 -2 0
-29 -9 -59 -21z"/>
<path d="M4912 2960 c7 -11 17 -20 22 -20 5 0 1 9 -9 20 -10 11 -20 20 -22 20
-2 0 2 -9 9 -20z"/>
<path d="M3914 2875 c-21 -21 -23 -28 -14 -45 16 -30 32 -33 97 -24 50 8 59
13 67 36 15 41 -6 58 -71 58 -44 0 -58 -4 -79 -25z"/>
<path d="M4342 2497 c-27 -28 -27 -39 -4 -60 15 -14 41 -17 139 -17 103 0 122
3 136 18 23 25 21 59 -2 72 -11 5 -71 10 -134 10 -106 0 -115 -2 -135 -23z"/>
<path d="M4616 2178 c-27 -38 2 -62 137 -113 45 -17 48 -17 67 0 11 10 20 29
20 42 0 20 -12 29 -75 58 -88 41 -127 44 -149 13z"/>
<path d="M1652 2104 c-109 -57 -132 -74 -132 -98 0 -25 17 -46 38 -46 18 0
212 97 231 115 9 8 11 23 7 39 -6 23 -11 26 -44 25 -20 -1 -65 -17 -100 -35z"/>
<path d="M4378 1894 c-4 -3 -30 -9 -60 -14 -73 -12 -109 -20 -133 -29 -42 -17
-92 -31 -108 -31 -10 0 -37 -9 -62 -20 -25 -11 -65 -29 -90 -40 -25 -11 -52
-20 -60 -20 -8 0 -37 -9 -63 -21 -114 -51 -195 -79 -225 -79 -10 0 -25 -4 -35
-9 -27 -13 -87 -31 -106 -31 -26 0 -76 -39 -76 -59 0 -22 19 -41 42 -41 35 0
352 101 563 180 242 91 338 115 513 130 230 20 422 -23 476 -106 53 -80 -41
-160 -274 -233 -161 -50 -165 -51 -193 -51 -14 0 -36 -4 -49 -9 -13 -5 -63
-15 -113 -22 -91 -12 -125 -28 -125 -59 0 -41 23 -44 168 -20 256 42 477 112
583 186 125 86 151 197 67 283 -57 58 -99 79 -223 111 -42 10 -407 14 -417 4z"/>
<path d="M5759 1567 c-52 -41 -19 -80 103 -122 73 -25 90 -27 112 -17 33 15
35 54 4 74 -17 11 -195 80 -202 78 0 0 -8 -6 -17 -13z"/>
</g>
</svg>
